<svg version="1.1" xmlns="http://www.w3.org/2000/svg" xmlns:xlink="http://www.w3.org/1999/xlink" width="47.15413" height="51.01071" viewBox="0,0,47.15413,51.01071"><g transform="translate(-295.86132,-155.61175)"><g stroke-miterlimit="10"><text transform="translate(306.72866,204.344) scale(0.22559,0.22559)" font-size="40" xml:space="preserve" fill="#424242" stroke="none" stroke-width="1" stroke-linecap="butt" font-family="&quot;Raleway-VariableFont_wght&quot;, Sans Serif" font-weight="normal" text-anchor="start"><tspan x="0" dy="0">About</tspan></text><path d="M323.09466,181.32853c-1.25093,-0.21032 -1.32598,-0.25309 -1.62176,-2.02754c-0.07505,-1.7934 0.91967,-3.97375 -0.1481,-4.55626c-0.85729,-0.46769 -2.48571,0.50127 -2.28494,-0.27149c0.28321,-1.09007 1.06496,-1.56074 2.39453,-1.90922c2.13197,-0.55879 2.75124,-0.01772 3.14529,0.86812c0.65543,1.47349 -0.56174,4.32204 -0.18296,5.36706c0.29015,0.80048 1.24958,0.73783 2.21412,0.178c0.43279,-0.2512 0.28194,1.17275 -0.51534,1.67601c-0.60607,0.38256 -2.61653,0.81787 -3.00082,0.67533z" fill="none" stroke="#424242" stroke-width="1.25" stroke-linecap="butt"/><path d="M322.91704,169.94869c-2.40052,2.34412 -6.5861,-1.53764 -4.27381,-4.64643c2.04621,-2.30085 6.95991,0.022 5.57335,3.02834zM322.75652,167.9235c0.83319,-1.44908 -1.80507,-2.70819 -2.88641,-1.5536c-1.41799,1.97387 1.51133,3.63896 2.78695,1.65037c0,0 0.0359,-0.05292 0.09946,-0.09677z" fill="#424242" stroke="none" stroke-width="0.5" stroke-linecap="butt"/><path d="M305.30828,187.57339c-5.74749,-20.08176 -8.04658,-23.75353 -2.97167,-24.7633c20.52872,-5.67918 30.25204,-9.01002 32.292,-3.98268c6.83626,16.84745 9.78886,21.72706 5.91153,22.79129c-28.25254,7.7546 -33.90915,10.57626 -35.23186,5.95468z" fill="none" stroke="#424242" stroke-width="1.5" stroke-linecap="butt"/><path d="M304.76814,186.68226c0,0 -3.58423,0.9227 -6.69082,1.96487c-1.3242,0.44423 -1.5538,-0.77344 -1.44069,-1.63308c0.50652,-3.84952 2.903,-22.06279 2.903,-22.06279" fill="none" stroke="#424242" stroke-width="1.5" stroke-linecap="round"/></g></g></svg>