<svg version="1.1" xmlns="http://www.w3.org/2000/svg" xmlns:xlink="http://www.w3.org/1999/xlink" width="31.16687" height="25.97327" viewBox="0,0,31.16687,25.97327"><g transform="translate(-304.74157,-167.01337)"><g stroke="#424242" stroke-miterlimit="10"><path d="M333.362,170.19383c0,0 1.92734,3.31576 1.89606,9.67091c-0.03119,6.33798 -2.2612,9.94144 -2.2612,9.94144" fill="none" stroke-width="1.3" stroke-linecap="round"/><path d="M304.74157,180.20657c0,-3.65161 3.29295,-6.61184 6.78084,-6.61184c3.21623,0 5.44727,-9.37554 9.02464,-5.74629c0.95596,0.96982 1.42783,11.17442 1.42783,12.35813c0,1.88157 -0.72121,9.9627 -1.71364,11.77572c-2.17139,3.96679 -6.01034,-5.09228 -8.31519,-5.16389c-3.48789,-0.10836 -7.20449,-2.96022 -7.20449,-6.61184z" fill="#424242" stroke-width="0" stroke-linecap="butt"/><path d="M325.62402,176.69523c0,0 0.64952,1.11744 0.63898,3.25918c-0.01052,2.13595 -0.76205,3.35036 -0.76205,3.35036" fill="none" stroke-width="1.3" stroke-linecap="round"/><path d="M329.46165,173.82367c0,0 1.2778,2.1983 1.25706,6.41167c-0.02068,4.20198 -1.49915,6.59103 -1.49915,6.59103" fill="none" stroke-width="1.3" stroke-linecap="round"/></g></g></svg>