<svg version="1.1" xmlns="http://www.w3.org/2000/svg" xmlns:xlink="http://www.w3.org/1999/xlink" width="355.03111" height="243.17619" viewBox="0,0,355.03111,243.17619"><g transform="translate(-166.86988,-58.47445)"><g stroke-miterlimit="10"><path d="M167.74486,72.37322c0,-7.26186 5.8869,-13.14878 13.14878,-13.14878c7.26186,0 13.14878,5.8869 13.14878,13.14878c0,7.26186 -5.8869,13.14878 -13.14878,13.14878c-7.26186,0 -13.14878,-5.8869 -13.14878,-13.14878z" fill="none" stroke="#b7b7b7" stroke-width="1" stroke-linecap="butt"/><path d="M508.10601,85.52203c-7.26186,0 -13.14878,-5.8869 -13.14878,-13.14876c0,-7.26187 5.88692,-13.14878 13.14878,-13.14878c7.26187,0 13.14878,5.8869 13.14878,13.14878c0,7.26187 -5.8869,13.14876 -13.14878,13.14876z" fill="none" stroke="#b7b7b7" stroke-width="1" stroke-linecap="butt"/><path d="M521.10936,72.40321v215.22364h-353.46385v-215.22364z" fill="none" stroke="#b7b7b7" stroke-width="1.5" stroke-linecap="butt"/><path d="M180.89364,274.47811c7.26187,0 13.14878,5.8869 13.14878,13.14876c0,7.26187 -5.8869,13.14878 -13.14878,13.14878c-7.26187,0 -13.14876,-5.8869 -13.14876,-13.14878c0,-7.26187 5.8869,-13.14876 13.14876,-13.14876z" fill="none" stroke="#b7b7b7" stroke-width="1.75" stroke-linecap="butt"/><path d="M521.02599,287.39805c0,7.26187 -5.8869,13.14878 -13.14878,13.14878c-7.26187,0 -13.14878,-5.8869 -13.14878,-13.14878c0,-7.26187 5.88692,-13.14876 13.14878,-13.14876c7.26187,0 13.14878,5.8869 13.14878,13.14876z" fill="none" stroke="#b7b7b7" stroke-width="1.75" stroke-linecap="butt"/><path d="M506.56653,59.22446v241.55116h-326.38639v-241.55116z" fill="none" stroke="#b7b7b7" stroke-width="1.5" stroke-linecap="butt"/><path d="M167.64551,93.15966v-20.70646h353.46385v20.70646z" fill="#171717" stroke="#0c1823" stroke-width="0" stroke-linecap="butt"/><path d="M167.74486,72.37322c0,-7.26186 5.8869,-13.14878 13.14878,-13.14878c7.26186,0 13.14878,5.8869 13.14878,13.14878c0,7.26186 -5.8869,13.14878 -13.14878,13.14878c-7.26186,0 -13.14878,-5.8869 -13.14878,-13.14878z" fill="#171717" stroke="#0c1823" stroke-width="0" stroke-linecap="butt"/><path d="M180.18014,81.44485v-22.2204h326.38638v22.2204z" fill="#171717" stroke="#0c1823" stroke-width="0" stroke-linecap="butt"/><path d="M508.10601,85.52203c-7.26186,0 -13.14878,-5.8869 -13.14878,-13.14876c0,-7.26187 5.88692,-13.14878 13.14878,-13.14878c7.26187,0 13.14878,5.8869 13.14878,13.14878c0,7.26187 -5.8869,13.14876 -13.14878,13.14876z" fill="#171717" stroke="#0c1823" stroke-width="0" stroke-linecap="butt"/><path d="M520.48988,91.96841v196.21677h-351.97576v-196.21677z" fill="#132135" stroke="#757575" stroke-width="0" stroke-linecap="butt"/><path d="M181.12242,274.47811c7.26187,0 13.14878,5.8869 13.14878,13.14876c0,7.26187 -5.8869,13.14878 -13.14878,13.14878c-7.26187,0 -13.14876,-5.8869 -13.14876,-13.14878c0,-7.26187 5.8869,-13.14876 13.14876,-13.14876z" fill="#132135" stroke="#0c1823" stroke-width="0" stroke-linecap="butt"/><path d="M506.56653,278.55521v22.22041h-326.38639v-22.22041z" fill="#132135" stroke="#0c1823" stroke-width="0" stroke-linecap="butt"/><path d="M521.25477,287.62684c0,7.26187 -5.8869,13.14878 -13.14878,13.14878c-7.26187,0 -13.14878,-5.8869 -13.14878,-13.14878c0,-7.26187 5.88692,-13.14876 13.14878,-13.14876c7.26187,0 13.14878,5.8869 13.14878,13.14876z" fill="#132135" stroke="#0c1823" stroke-width="0" stroke-linecap="butt"/><text transform="translate(178.40642,80.62053) scale(0.39215,0.39215)" font-size="40" xml:space="preserve" fill="#ffffff" stroke="none" stroke-width="1" stroke-linecap="butt" font-family="&quot;Raleway-VariableFont_wght&quot;, Sans Serif" font-weight="normal" text-anchor="start"><tspan x="0" dy="0">root/links</tspan></text><path d="M167.65883,91.93295h353.69566" fill="none" stroke="#b7b7b7" stroke-width="0.5" stroke-linecap="round"/><text transform="translate(486.40642,80.62054) scale(0.39215,0.39215)" font-size="40" xml:space="preserve" fill="#ffffff" stroke="none" stroke-width="1" stroke-linecap="butt" font-family="&quot;Raleway-VariableFont_wght&quot;, Sans Serif" font-weight="normal" text-anchor="start"><tspan x="0" dy="0">[ x ]</tspan></text><text transform="translate(198.20645,189.47561) scale(0.25708,0.25708)" font-size="40" xml:space="preserve" fill="#e3ecf4" stroke-opacity="0" stroke="#000000" stroke-width="0" stroke-linecap="butt" font-family="&quot;Roboto-VariableFont_wdthwght&quot;, Sans Serif" font-weight="normal" text-anchor="start"><tspan x="0" dy="0">Telegram</tspan></text><text transform="translate(328.53821,189.47561) scale(0.25708,0.25708)" font-size="40" xml:space="preserve" fill="#e3ecf4" stroke-opacity="0" stroke="#000000" stroke-width="0" stroke-linecap="butt" font-family="&quot;Roboto-VariableFont_wdthwght&quot;, Sans Serif" font-weight="normal" text-anchor="start"><tspan x="0" dy="0">GitHub</tspan></text><text transform="translate(452.55086,189.47561) scale(0.25708,0.25708)" font-size="40" xml:space="preserve" fill="#e3ecf4" stroke-opacity="0" stroke="#000000" stroke-width="0" stroke-linecap="butt" font-family="&quot;Roboto-VariableFont_wdthwght&quot;, Sans Serif" font-weight="normal" text-anchor="start"><tspan x="0" dy="0">Itch io</tspan></text><text transform="translate(210.84468,287.42188) scale(0.25708,0.25708)" font-size="40" xml:space="preserve" fill="#e3ecf4" stroke-opacity="0" stroke="#000000" stroke-width="0" stroke-linecap="butt" font-family="&quot;Roboto-VariableFont_wdthwght&quot;, Sans Serif" font-weight="normal" text-anchor="start"><tspan x="0" dy="0">Ko-fi</tspan></text><text transform="translate(328.53821,287.42188) scale(0.25708,0.25708)" font-size="40" xml:space="preserve" fill="#e3ecf4" stroke-opacity="0" stroke="#000000" stroke-width="0" stroke-linecap="butt" font-family="&quot;Roboto-VariableFont_wdthwght&quot;, Sans Serif" font-weight="normal" text-anchor="start"><tspan x="0" dy="0">Discord</tspan></text><text transform="translate(392.71296,220.287) scale(0.30229,0.30229)" font-size="40" xml:space="preserve" fill="#e3ecf4" stroke="none" stroke-width="1" stroke-linecap="butt" font-family="&quot;Raleway-VariableFont_wght&quot;, Sans Serif" font-weight="normal" text-anchor="start"><tspan x="0" dy="0">Clicking on the icon</tspan><tspan x="0" dy="46.150000000000006px">will open the link in</tspan><tspan x="0" dy="46.150000000000006px">a new tab</tspan></text><path d="M379.99997,257.41668v-53.33334h135.00001v53.33334z" fill="none" stroke="#e3ecf4" stroke-width="1" stroke-linecap="butt"/></g></g></svg>