<svg version="1.1" xmlns="http://www.w3.org/2000/svg" xmlns:xlink="http://www.w3.org/1999/xlink" width="40.83982" height="54.4107" viewBox="0,0,40.83982,54.4107"><g transform="translate(-299.5801,-152.21175)"><g stroke-miterlimit="10"><path d="M329.38427,160.7674c5.96535,0.54417 9.95412,-2.05886 9.98499,4.25152c0.04809,9.83141 0.26811,23.23104 0.26811,23.23104" fill="#000002" stroke="#c0c7d1" stroke-width="1.5" stroke-linecap="round"/><path d="M302.74731,179.26529c-1.78927,-7.3205 -3.61861,-10.43213 -1.38784,-10.44549c12.13524,-0.07269 9.9268,-0.17846 14.81202,-0.23043c10.01973,-0.1066 8.19004,-0.01554 16.06776,0.04994c2.70473,0.02248 4.11144,6.68608 4.86126,9.78035c1.64683,6.79602 4.00629,11.62702 1.42156,11.62889c-5.51238,0.00398 -8.71034,-0.11476 -16.85407,-0.00165c-4.38878,0.06094 -6.67143,0.19781 -13.3616,0.215c-3.19378,0.00821 -3.8135,-3.85489 -5.55908,-10.99662z" fill="#000002" stroke="#c0c7d1" stroke-width="1.5" stroke-linecap="butt"/><path d="M305.70698,168.69506c0,0 -0.41124,-3.59508 0.1615,-4.47208c0.55414,-0.84852 3.22097,-0.70732 3.22097,-0.70732" fill="#000002" stroke="#c0c7d1" stroke-width="1.5" stroke-linecap="round"/><path d="M306.55261,168.48367c4.42704,-8.01985 3.62515,-7.89402 7.53522,-13.59279c2.39656,-3.43855 2.06722,-2.23423 10.96693,3.24401c9.2356,5.685 9.76813,4.49106 7.9053,7.71061c-2.5491,4.40564 -1.24023,2.15194 -1.22685,2.20102" fill="#000002" stroke="#c0c7d1" stroke-width="1.5" stroke-linecap="round"/><path d="M328.43295,166.36962l-10.78162,-7.08205" fill="#000002" stroke="#c0c7d1" stroke-width="1.5" stroke-linecap="round"/><path d="M324.83907,168.27225l-8.87898,-5.60221" fill="#000002" stroke="#c0c7d1" stroke-width="1.5" stroke-linecap="round"/><path d="M318.49694,168.27226l-4.8623,-2.85396" fill="#000002" stroke="#c0c7d1" stroke-width="1.5" stroke-linecap="round"/><text transform="translate(303.17603,204.344) scale(0.22559,0.22559)" font-size="40" xml:space="preserve" fill="#c0c7d1" stroke="none" stroke-width="1" stroke-linecap="butt" font-family="&quot;Raleway-VariableFont_wght&quot;, Sans Serif" font-weight="normal" text-anchor="start"><tspan x="0" dy="0">Projects</tspan></text></g></g></svg>