<svg version="1.1" xmlns="http://www.w3.org/2000/svg" xmlns:xlink="http://www.w3.org/1999/xlink" width="354.50993" height="242.5512" viewBox="0,0,354.50993,242.5512"><g transform="translate(-142.74486,-58.72442)"><g stroke-miterlimit="10"><path d="M143.24486,72.3732c0,-7.26186 5.8869,-13.14878 13.14878,-13.14878c7.26186,0 13.14878,5.8869 13.14878,13.14878c0,7.26186 -5.8869,13.14878 -13.14878,13.14878c-7.26186,0 -13.14878,-5.8869 -13.14878,-13.14878z" fill="none" stroke="#b7b7b7" stroke-width="1" stroke-linecap="butt"/><path d="M483.60601,85.52201c-7.26186,0 -13.14878,-5.8869 -13.14878,-13.14876c0,-7.26187 5.88692,-13.14878 13.14878,-13.14878c7.26187,0 13.14878,5.8869 13.14878,13.14878c0,7.26187 -5.8869,13.14876 -13.14878,13.14876z" fill="none" stroke="#b7b7b7" stroke-width="1" stroke-linecap="butt"/><path d="M496.60936,72.40319v215.22364h-353.11324v-215.22364z" fill="none" stroke="#b7b7b7" stroke-width="1" stroke-linecap="butt"/><path d="M156.39364,274.47808c7.26187,0 13.14878,5.8869 13.14878,13.14876c0,7.26187 -5.8869,13.14878 -13.14878,13.14878c-7.26187,0 -13.14876,-5.8869 -13.14876,-13.14878c0,-7.26187 5.8869,-13.14876 13.14876,-13.14876z" fill="none" stroke="#b7b7b7" stroke-width="1" stroke-linecap="butt"/><path d="M496.75477,287.62681c0,7.26187 -5.8869,13.14878 -13.14878,13.14878c-7.26187,0 -13.14878,-5.8869 -13.14878,-13.14878c0,-7.26187 5.88692,-13.14876 13.14878,-13.14876c7.26187,0 13.14878,5.8869 13.14878,13.14876z" fill="none" stroke="#b7b7b7" stroke-width="1" stroke-linecap="butt"/><path d="M482.06653,59.22443v241.55116h-326.38639v-241.55116z" fill="none" stroke="#b7b7b7" stroke-width="1" stroke-linecap="butt"/><path d="M143.14551,93.15964v-20.70646h353.46385v20.70646z" fill="#424242" stroke="#0c1823" stroke-width="0" stroke-linecap="butt"/><path d="M143.24486,72.3732c0,-7.26186 5.8869,-13.14878 13.14878,-13.14878c7.26186,0 13.14878,5.8869 13.14878,13.14878c0,7.26186 -5.8869,13.14878 -13.14878,13.14878c-7.26186,0 -13.14878,-5.8869 -13.14878,-13.14878z" fill="#424242" stroke="#0c1823" stroke-width="0" stroke-linecap="butt"/><path d="M155.68014,81.44483v-22.2204h326.38638v22.2204z" fill="#424242" stroke="#0c1823" stroke-width="0" stroke-linecap="butt"/><path d="M483.60601,85.52201c-7.26186,0 -13.14878,-5.8869 -13.14878,-13.14876c0,-7.26187 5.88692,-13.14878 13.14878,-13.14878c7.26187,0 13.14878,5.8869 13.14878,13.14878c0,7.26187 -5.8869,13.14876 -13.14878,13.14876z" fill="#424242" stroke="#0c1823" stroke-width="0" stroke-linecap="butt"/><path d="M495.98988,91.96839v196.21677h-351.97576v-196.21677z" fill="#ffffff" stroke="#757575" stroke-width="0" stroke-linecap="butt"/><path d="M156.39364,274.47808c7.26187,0 13.14878,5.8869 13.14878,13.14876c0,7.26187 -5.8869,13.14878 -13.14878,13.14878c-7.26187,0 -13.14876,-5.8869 -13.14876,-13.14878c0,-7.26187 5.8869,-13.14876 13.14876,-13.14876z" fill="#ffffff" stroke="#0c1823" stroke-width="0" stroke-linecap="butt"/><path d="M482.06653,278.55519v22.22041h-326.38639v-22.22041z" fill="#ffffff" stroke="#0c1823" stroke-width="0" stroke-linecap="butt"/><path d="M496.75477,287.62681c0,7.26187 -5.8869,13.14878 -13.14878,13.14878c-7.26187,0 -13.14878,-5.8869 -13.14878,-13.14878c0,-7.26187 5.88692,-13.14876 13.14878,-13.14876c7.26187,0 13.14878,5.8869 13.14878,13.14876z" fill="#ffffff" stroke="#0c1823" stroke-width="0" stroke-linecap="butt"/><text transform="translate(153.90642,80.62051) scale(0.39215,0.39215)" font-size="40" xml:space="preserve" fill="#ffffff" stroke="none" stroke-width="1" stroke-linecap="butt" font-family="&quot;Raleway-VariableFont_wght&quot;, Sans Serif" font-weight="normal" text-anchor="start"><tspan x="0" dy="0">root/links</tspan></text><path d="M496.85449,91.93293h-353.69566" fill="none" stroke="#b7b7b7" stroke-width="0.5" stroke-linecap="round"/><text transform="translate(461.90642,80.62052) scale(0.39215,0.39215)" font-size="40" xml:space="preserve" fill="#ffffff" stroke="none" stroke-width="1" stroke-linecap="butt" font-family="&quot;Raleway-VariableFont_wght&quot;, Sans Serif" font-weight="normal" text-anchor="start"><tspan x="0" dy="0">[ x ]</tspan></text><text transform="translate(173.70645,189.4756) scale(0.25708,0.25708)" font-size="40" xml:space="preserve" fill="#424242" stroke-opacity="0" stroke="#000000" stroke-width="0" stroke-linecap="butt" font-family="&quot;Roboto-VariableFont_wdthwght&quot;, Sans Serif" font-weight="normal" text-anchor="start"><tspan x="0" dy="0">Telegram</tspan></text><text transform="translate(304.03821,189.4756) scale(0.25708,0.25708)" font-size="40" xml:space="preserve" fill="#424242" stroke-opacity="0" stroke="#000000" stroke-width="0" stroke-linecap="butt" font-family="&quot;Roboto-VariableFont_wdthwght&quot;, Sans Serif" font-weight="normal" text-anchor="start"><tspan x="0" dy="0">GitHub</tspan></text><text transform="translate(428.05086,189.4756) scale(0.25708,0.25708)" font-size="40" xml:space="preserve" fill="#424242" stroke-opacity="0" stroke="#000000" stroke-width="0" stroke-linecap="butt" font-family="&quot;Roboto-VariableFont_wdthwght&quot;, Sans Serif" font-weight="normal" text-anchor="start"><tspan x="0" dy="0">Itch io</tspan></text><text transform="translate(186.34468,287.42188) scale(0.25708,0.25708)" font-size="40" xml:space="preserve" fill="#424242" stroke-opacity="0" stroke="#000000" stroke-width="0" stroke-linecap="butt" font-family="&quot;Roboto-VariableFont_wdthwght&quot;, Sans Serif" font-weight="normal" text-anchor="start"><tspan x="0" dy="0">Ko-fi</tspan></text><text transform="translate(304.03821,287.42188) scale(0.25708,0.25708)" font-size="40" xml:space="preserve" fill="#424242" stroke-opacity="0" stroke="#000000" stroke-width="0" stroke-linecap="butt" font-family="&quot;Roboto-VariableFont_wdthwght&quot;, Sans Serif" font-weight="normal" text-anchor="start"><tspan x="0" dy="0">Discord</tspan></text><text transform="translate(368.21296,220.28699) scale(0.30229,0.30229)" font-size="40" xml:space="preserve" fill="#424242" stroke="none" stroke-width="1" stroke-linecap="butt" font-family="&quot;Raleway-VariableFont_wght&quot;, Sans Serif" font-weight="normal" text-anchor="start"><tspan x="0" dy="0">Clicking on the icon</tspan><tspan x="0" dy="46.150000000000006px">will open the link in</tspan><tspan x="0" dy="46.150000000000006px">a new tab</tspan></text><path d="M355.49997,257.41667v-53.33334h135.00001v53.33334z" fill="none" stroke="#424242" stroke-width="1" stroke-linecap="butt"/></g></g></svg>