<svg version="1.1" xmlns="http://www.w3.org/2000/svg" xmlns:xlink="http://www.w3.org/1999/xlink" width="105.40007" height="185.17661" viewBox="0,0,105.40007,185.17661"><defs><linearGradient x1="369.03613" y1="180.18753" x2="369.03613" y2="360.18753" gradientUnits="userSpaceOnUse" id="color-1"><stop offset="0" stop-color="#7088ff" stop-opacity="0.51765"/><stop offset="1" stop-color="#687eed" stop-opacity="0.08235"/></linearGradient></defs><g transform="translate(-317.52963,-175.01092)"><g stroke-miterlimit="10"><path d="M317.64257,360.18753v-180c0,0 12.09807,3.93799 25.52442,3.93799c8.96351,0 14.90723,-3.87264 25.27203,-3.93799c10.92657,-0.06889 16.00933,4.12552 24.892,4.12552c11.1243,0 21.65366,-3.15917 25.53042,-4.23236c1.00982,-0.27954 1.56827,-0.45573 1.56827,-0.45573v180.56257z" fill="url(#color-1)" stroke="#8da0ff" stroke-width="0" stroke-linecap="butt"/><path d="M420.4297,180.54496c0,0 -11.33141,4.88819 -24.11972,4.88819c-9.2479,0 -15.88746,-5.00335 -26.29509,-4.88819c-10.29988,0.11397 -16.712,4.88819 -25.78942,4.88819c-12.80049,0 -24.19584,-4.88819 -24.19584,-4.88819" fill="none" stroke="#8da0ff" stroke-width="5" stroke-linecap="round"/><path d="M420.4297,177.51092c0,0 -11.33141,4.88819 -24.11972,4.88819c-9.2479,0 -15.88746,-5.00335 -26.29509,-4.88819c-10.29988,0.11397 -16.712,4.88819 -25.78942,4.88819c-12.80049,0 -24.19584,-4.88819 -24.19584,-4.88819" fill="none" stroke="#798fff" stroke-width="5" stroke-linecap="round"/></g></g></svg>