<svg version="1.1" xmlns="http://www.w3.org/2000/svg" xmlns:xlink="http://www.w3.org/1999/xlink" width="29.45497" height="28.63344" viewBox="0,0,29.45497,28.63344"><g transform="translate(-302.31413,-164.01826)"><g stroke-miterlimit="10"><path d="" fill="none" stroke="#000000" stroke-width="4" stroke-linecap="round"/><path d="" fill="none" stroke="#000000" stroke-width="4" stroke-linecap="round"/><path d="" fill="none" stroke="#000000" stroke-width="4" stroke-linecap="round"/><path d="" fill="none" stroke="#000000" stroke-width="4" stroke-linecap="round"/><path d="" fill="none" stroke="#000000" stroke-width="4" stroke-linecap="round"/><path d="" fill="none" stroke="#000000" stroke-width="4" stroke-linecap="round"/><path d="" fill="none" stroke="#000000" stroke-width="4" stroke-linecap="round"/><path d="" fill="none" stroke="#000000" stroke-width="4" stroke-linecap="round"/><path d="" fill="#000000" stroke="none" stroke-width="4" stroke-linecap="butt"/><path d="" fill="none" stroke="#000000" stroke-width="8.5" stroke-linecap="round"/><path d="" fill="none" stroke="#000000" stroke-width="8.5" stroke-linecap="round"/><path d="M304.95047,179.11739c0,-3.87192 1.65649,-7.35694 4.29945,-9.78505c2.36507,-2.17281 5.52006,-3.49926 8.98487,-3.49926c7.33673,0 13.28431,5.94759 13.28431,13.28431c0,7.33673 -5.94759,13.28431 -13.28431,13.28431c-7.33673,0 -13.28431,-5.94759 -13.28431,-13.28431z" fill="#ffffff" stroke-opacity="0.01176" stroke="#000000" stroke-width="0.5" stroke-linecap="butt"/><path d="M302.31413,176.16084c0,-6.70616 5.43642,-12.14258 12.14258,-12.14258c6.70616,0 12.14258,5.43642 12.14258,12.14258c0,6.70616 -5.43642,12.14258 -12.14258,12.14258c-6.70616,0 -12.14258,-5.43642 -12.14258,-12.14258z" fill="#171717" stroke="#000000" stroke-width="0" stroke-linecap="butt"/></g></g></svg>