<svg version="1.1" xmlns="http://www.w3.org/2000/svg" xmlns:xlink="http://www.w3.org/1999/xlink" width="38.29374" height="53.08892" viewBox="0,0,38.29374,53.08892"><g transform="translate(-301.27861,-153.53354)"><g stroke-miterlimit="10"><path d="M319.66688,166.87952c2.84343,0 5.64056,2.11765 5.24567,4.91447c-0.16696,1.18253 -0.76431,1.51864 -3.05248,1.38399c-2.09273,-0.12315 -3.58142,-3.75021 -6.235,-1.89621c-3.1487,2.19994 -8.20528,7.75842 -8.89782,9.15427c-0.72912,1.46956 -0.43238,5.37431 3.40879,5.24902c1.9058,-0.06216 6.83065,-4.83949 9.33003,-7.34078c0.12368,-0.12377 4.40985,0.31979 4.40985,0.31979c0,0 -0.59299,1.64677 -2.81025,3.75747c-8.36011,7.95833 -11.79911,11.0086 -16.44202,6.17668c-4.04053,-4.20502 -4.15117,-9.62863 5.40718,-18.10519c4.57572,-4.05785 3.75627,-3.61352 9.63606,-3.61352z" fill="#000002" stroke="#c0c7d1" stroke-width="1.5"/><text transform="translate(309.29445,204.344) scale(0.22559,0.22559)" font-size="40" xml:space="preserve" fill="#c0c7d1" stroke="none" stroke-width="1" font-family="&quot;Raleway-VariableFont_wght&quot;, Sans Serif" font-weight="normal" text-anchor="start"><tspan x="0" dy="0">Links</tspan></text><path d="M337.57094,164.1841c-2.21853,5.679 -13.51533,14.42248 -13.51533,14.42248c0,0 -4.93556,-0.32494 -5.16789,-0.49312c-1.78917,-1.29521 -3.49072,-3.01321 -4.25961,-5.546c-0.16793,-0.55316 1.8724,-1.62649 2.33744,-1.76543c0.61163,-0.18272 1.63787,0.33517 2.48762,0.99401c1.07893,0.83654 1.86278,1.27395 3.02402,1.36513c0.89584,0.07034 1.35567,0.22085 2.30794,-0.6759c2.32946,-2.19365 5.22952,-4.83443 6.89226,-7.60534c1.55453,-2.59058 1.18243,-6.5315 -1.76539,-6.48673c-4.09956,0.06227 -7.89745,8.45572 -9.52696,8.40681c-0.29891,-0.00898 -2.05355,-0.01592 -3.4836,-0.04473c-1.11866,-0.02253 -2.08704,0.01407 -1.68463,-0.45407c5.9777,-6.95401 9.2997,-12.01767 15.31787,-12.01767c6.01816,0 8.47447,6.21901 7.03625,9.90057z" fill="#000002" stroke="#c0c7d1" stroke-width="1.5"/></g></g></svg>