<svg version="1.1" xmlns="http://www.w3.org/2000/svg" xmlns:xlink="http://www.w3.org/1999/xlink" width="703.70271" height="459.95946" viewBox="0,0,703.70271,459.95946"><g transform="translate(39.73349,299.37914)"><g stroke="none" stroke-miterlimit="10"><path d="M106.66215,-154.98498v-1.5015h1.5015v1.5015z" fill="#f7f8ff" stroke-width="0"/><path d="M3.81005,-236.06532c-0.00075,-0.75 0.74925,-0.75075 0.74925,-0.75075h0.0015c0.32338,0.07281 0.73588,0.45294 0.97015,0.21843c0.23427,-0.23451 -0.14627,-0.64662 -0.2194,-0.96994c0,0 0,-0.75 0.75,-0.75c0.75,0 0.75,0.75 0.75,0.75c-0.07313,0.67669 0.26163,1.54855 -0.2194,2.03006c-0.48104,0.48152 -1.35323,0.14762 -2.02984,0.22143h-0.0015c0,0 -0.75,0.00075 -0.75075,-0.74925z" fill="#ffffff" stroke-width="0.5"/><path d="M-39.73349,-157.988c0,-0.41422 0.33579,-0.75 0.75,-0.75c0.41421,0 0.75,0.33578 0.75,0.75c0,0.41422 -0.33579,0.75 -0.75,0.75c-0.41421,0 -0.75,-0.33578 -0.75,-0.75z" fill="#f7f8ff" stroke-width="0.5"/><path d="M207.26576,-225.55556c0,-1.65686 1.34314,-3 3,-3c1.65686,0 3,1.34314 3,3c0,1.65686 -1.34314,3 -3,3c-1.65686,0 -3,-1.34314 -3,-3z" fill="#f7f8ff" stroke-width="0.5"/><path d="M190.74925,34.2042c0,-1.65686 1.34314,-3 3,-3c1.65686,0 3,1.34314 3,3c0,1.65686 -1.34314,3 -3,3c-1.65686,0 -3,-1.34314 -3,-3z" fill="#f7f8ff" stroke-width="0.5"/><path d="M40.09759,152.82281c0,-1.10457 0.89543,-2 2,-2c1.10457,0 2,0.89543 2,2c0,1.10457 -0.89543,2 -2,2c-1.10457,0 -2,-0.89543 -2,-2z" fill="#f7f8ff" stroke-width="0.5"/><path d="M331.38889,52.22221c0,-1.10457 0.89543,-2 2,-2c1.10457,0 2,0.89543 2,2c0,1.10457 -0.89543,2 -2,2c-1.10457,0 -2,-0.89543 -2,-2z" fill="#f7f8ff" stroke-width="0.5"/><path d="M94.90165,37.2072c0,-0.69036 0.55964,-1.25 1.25,-1.25c0.69036,0 1.25,0.55964 1.25,1.25c0,0.69036 -0.55964,1.25 -1.25,1.25c-0.69036,0 -1.25,-0.55964 -1.25,-1.25z" fill="#f7f8ff" stroke-width="0.5"/><path d="M599.40615,97.26726c0,-0.69036 0.55964,-1.25 1.25,-1.25c0.69036,0 1.25,0.55964 1.25,1.25c0,0.69036 -0.55964,1.25 -1.25,1.25c-0.69036,0 -1.25,-0.55964 -1.25,-1.25z" fill="#f7f8ff" stroke-width="0.5"/><path d="M503.31006,19.18918c0,-0.69036 0.55964,-1.25 1.25,-1.25c0.69036,0 1.25,0.55964 1.25,1.25c0,0.69036 -0.55964,1.25 -1.25,1.25c-0.69036,0 -1.25,-0.55964 -1.25,-1.25z" fill="#f7f8ff" stroke-width="0.5"/><path d="M130.18618,83.75374c0,-0.27614 0.22386,-0.5 0.5,-0.5c0.27614,0 0.5,0.22386 0.5,0.5c0,0.27614 -0.22386,0.5 -0.5,0.5c-0.27614,0 -0.5,-0.22386 -0.5,-0.5z" fill="#f7f8ff" stroke-width="0.5"/><path d="M400.45645,19.18918c0,-0.27614 0.22386,-0.5 0.5,-0.5c0.27614,0 0.5,0.22386 0.5,0.5c0,0.27614 -0.22386,0.5 -0.5,0.5c-0.27614,0 -0.5,-0.22386 -0.5,-0.5z" fill="#f7f8ff" stroke-width="0.5"/><path d="M32.58858,32.70269c0,-0.27614 0.22386,-0.5 0.5,-0.5c0.27614,0 0.5,0.22386 0.5,0.5c0,0.27614 -0.22386,0.5 -0.5,0.5c-0.27614,0 -0.5,-0.22386 -0.5,-0.5z" fill="#f7f8ff" stroke-width="0.5"/><path d="M625.68168,25.19519c0,-0.27614 0.22386,-0.5 0.5,-0.5c0.27614,0 0.5,0.22386 0.5,0.5c0,0.27614 -0.22386,0.5 -0.5,0.5c-0.27614,0 -0.5,-0.22386 -0.5,-0.5z" fill="#f7f8ff" stroke-width="0.5"/><path d="M67.37312,131.80179c0,-0.13807 0.11193,-0.25 0.25,-0.25c0.13807,0 0.25,0.11193 0.25,0.25c0,0.13807 -0.11193,0.25 -0.25,0.25c-0.13807,0 -0.25,-0.11193 -0.25,-0.25z" fill="#f7f8ff" stroke-width="0.5"/><path d="M243.0488,29.69969c0,-0.13807 0.11193,-0.25 0.25,-0.25c0.13807,0 0.25,0.11193 0.25,0.25c0,0.13807 -0.11193,0.25 -0.25,0.25c-0.13807,0 -0.25,-0.11193 -0.25,-0.25z" fill="#f7f8ff" stroke-width="0.5"/><path d="M285.09084,61.23122c0,-0.13807 0.11193,-0.25 0.25,-0.25c0.13807,0 0.25,0.11193 0.25,0.25c0,0.13807 -0.11193,0.25 -0.25,0.25c-0.13807,0 -0.25,-0.11193 -0.25,-0.25z" fill="#f7f8ff" stroke-width="0.5"/><path d="M600.40615,26.69669c0,-0.13807 0.11193,-0.25 0.25,-0.25c0.13807,0 0.25,0.11193 0.25,0.25c0,0.13807 -0.11193,0.25 -0.25,0.25c-0.13807,0 -0.25,-0.11193 -0.25,-0.25z" fill="#f7f8ff" stroke-width="0.5"/><path d="M537.34309,104.77477c0,-0.13807 0.11193,-0.25 0.25,-0.25c0.13807,0 0.25,0.11193 0.25,0.25c0,0.13807 -0.11193,0.25 -0.25,0.25c-0.13807,0 -0.25,-0.11193 -0.25,-0.25z" fill="#f7f8ff" stroke-width="0.5"/><path d="M663.46922,160.33032c0,-0.13807 0.11193,-0.25 0.25,-0.25c0.13807,0 0.25,0.11193 0.25,0.25c0,0.13807 -0.11193,0.25 -0.25,0.25c-0.13807,0 -0.25,-0.11193 -0.25,-0.25z" fill="#f7f8ff" stroke-width="0.5"/><path d="M463.76952,34.2042c0,-0.13807 0.11193,-0.25 0.25,-0.25c0.13807,0 0.25,0.11193 0.25,0.25c0,0.13807 -0.11193,0.25 -0.25,0.25c-0.13807,0 -0.25,-0.11193 -0.25,-0.25z" fill="#f7f8ff" stroke-width="0.5"/><path d="M393.19895,41.7117c0,-0.13807 0.11193,-0.25 0.25,-0.25c0.13807,0 0.25,0.11193 0.25,0.25c0,0.13807 -0.11193,0.25 -0.25,0.25c-0.13807,0 -0.25,-0.11193 -0.25,-0.25z" fill="#f7f8ff" stroke-width="0.5"/><path d="M234.03979,19.18918c0,-0.13807 0.11193,-0.25 0.25,-0.25c0.13807,0 0.25,0.11193 0.25,0.25c0,0.13807 -0.11193,0.25 -0.25,0.25c-0.13807,0 -0.25,-0.11193 -0.25,-0.25z" fill="#f7f8ff" stroke-width="0.5"/><path d="M250.5563,-299.12914c0,-0.13807 0.11193,-0.25 0.25,-0.25c0.13807,0 0.25,0.11193 0.25,0.25c0,0.13807 -0.11193,0.25 -0.25,0.25c-0.13807,0 -0.25,-0.11193 -0.25,-0.25z" fill="#f7f8ff" stroke-width="0.5"/><path d="M130.43618,31.20119c0,-0.13807 0.11193,-0.25 0.25,-0.25c0.13807,0 0.25,0.11193 0.25,0.25c0,0.13807 -0.11193,0.25 -0.25,0.25c-0.13807,0 -0.25,-0.11193 -0.25,-0.25z" fill="#f7f8ff" stroke-width="0.5"/><path d="M630.43618,22.19218c0,-0.13807 0.11193,-0.25 0.25,-0.25c0.13807,0 0.25,0.11193 0.25,0.25c0,0.13807 -0.11193,0.25 -0.25,0.25c-0.13807,0 -0.25,-0.11193 -0.25,-0.25z" fill="#f7f8ff" stroke-width="0.5"/><path d="M35.84159,89.75975c0,-0.13807 0.11193,-0.25 0.25,-0.25c0.13807,0 0.25,0.11193 0.25,0.25c0,0.13807 -0.11193,0.25 -0.25,0.25c-0.13807,0 -0.25,-0.11193 -0.25,-0.25z" fill="#f7f8ff" stroke-width="0.5"/><path d="M549.3551,109.27927c0,-0.13807 0.11193,-0.25 0.25,-0.25c0.13807,0 0.25,0.11193 0.25,0.25c0,0.13807 -0.11193,0.25 -0.25,0.25c-0.13807,0 -0.25,-0.11193 -0.25,-0.25z" fill="#f7f8ff" stroke-width="0.5"/><text transform="translate(312.64698,12.89813) scale(0.25,0.25)" font-size="40" xml:space="preserve" fill="#c0c7d1" stroke-width="1" font-family="&quot;Roboto-VariableFont_wdthwght&quot;, Sans Serif" font-weight="normal" text-anchor="start"><tspan x="0" dy="0">© 2025 ZinCin</tspan></text></g></g></svg>